<svg width="680" height="634" viewBox="0 0 680 634" xmlns="http://www.w3.org/2000/svg" font-family="Segoe UI, Arial, sans-serif" role="img">
<title>Bowling architecture</title>
<desc>A React (Vite) frontend on localhost:5173 sends HTTP requests through a JWT auth filter into a Spring Boot application with four REST controllers (Auth, Bowler, Session, Score), each backed by a matching service (User, Bowler, Session, Score), which use JPA repositories to read and write a MariaDB database (H2 in tests).</desc>
<defs>
<marker id="arrow" viewBox="0 0 10 10" refX="8" refY="5" markerWidth="6" markerHeight="6" orient="auto-start-reverse"><path d="M2 1L8 5L2 9" fill="none" stroke="#5f5e5a" stroke-width="1.5" stroke-linecap="round" stroke-linejoin="round"/></marker>
</defs>

<rect x="250" y="20" width="180" height="44" rx="8" fill="#EEEDFE" stroke="#7F77DD" stroke-width="0.5"/>
<text x="340" y="38" text-anchor="middle" font-size="14" font-weight="600" fill="#3C3489">React frontend</text>
<text x="340" y="54" text-anchor="middle" font-size="12" fill="#534AB7">Vite, localhost:5173</text>
<line x1="340" y1="64" x2="340" y2="94" stroke="#5f5e5a" stroke-width="1.5" marker-end="url(#arrow)"/>

<rect x="270" y="94" width="140" height="44" rx="8" fill="#F1EFE8" stroke="#888780" stroke-width="0.5"/>
<text x="340" y="112" text-anchor="middle" font-size="14" font-weight="600" fill="#2C2C2A">Client</text>
<text x="340" y="128" text-anchor="middle" font-size="12" fill="#444441">HTTP</text>
<line x1="340" y1="138" x2="340" y2="222" stroke="#5f5e5a" stroke-width="1.5" marker-end="url(#arrow)"/>

<rect x="40" y="164" width="600" height="364" rx="20" fill="none" stroke="#888780" stroke-width="0.5"/>
<text x="70" y="190" font-size="14" font-weight="600" fill="#2C2C2A">Spring Boot application</text>
<text x="70" y="207" font-size="12" fill="#444441">Java 21 / Spring Boot 3.3.5</text>

<rect x="90" y="222" width="500" height="40" rx="8" fill="#F1EFE8" stroke="#888780" stroke-width="0.5"/>
<text x="340" y="238" text-anchor="middle" font-size="14" font-weight="600" fill="#2C2C2A">JWT auth filter</text>
<text x="340" y="254" text-anchor="middle" font-size="12" fill="#444441">Validates bearer token, sets security context</text>
<line x1="340" y1="262" x2="340" y2="288" stroke="#5f5e5a" stroke-width="1.5" marker-end="url(#arrow)"/>

<rect x="68" y="288" width="125" height="56" rx="8" fill="#E6F1FB" stroke="#378ADD" stroke-width="0.5"/>
<text x="130.5" y="308" text-anchor="middle" font-size="14" font-weight="600" fill="#0C447C">Auth</text>
<text x="130.5" y="326" text-anchor="middle" font-size="12" fill="#185FA5">/api/auth</text>

<rect x="208" y="288" width="125" height="56" rx="8" fill="#E6F1FB" stroke="#378ADD" stroke-width="0.5"/>
<text x="270.5" y="308" text-anchor="middle" font-size="14" font-weight="600" fill="#0C447C">Bowler</text>
<text x="270.5" y="326" text-anchor="middle" font-size="12" fill="#185FA5">/api/bowlers</text>

<rect x="348" y="288" width="125" height="56" rx="8" fill="#E6F1FB" stroke="#378ADD" stroke-width="0.5"/>
<text x="410.5" y="308" text-anchor="middle" font-size="14" font-weight="600" fill="#0C447C">Session</text>
<text x="410.5" y="326" text-anchor="middle" font-size="12" fill="#185FA5">/api/sessions</text>

<rect x="488" y="288" width="125" height="56" rx="8" fill="#E6F1FB" stroke="#378ADD" stroke-width="0.5"/>
<text x="550.5" y="308" text-anchor="middle" font-size="14" font-weight="600" fill="#0C447C">Score</text>
<text x="550.5" y="326" text-anchor="middle" font-size="12" fill="#185FA5">/api/scores</text>

<line x1="130.5" y1="344" x2="130.5" y2="370" stroke="#5f5e5a" stroke-width="1.5" marker-end="url(#arrow)"/>
<line x1="270.5" y1="344" x2="270.5" y2="370" stroke="#5f5e5a" stroke-width="1.5" marker-end="url(#arrow)"/>
<line x1="410.5" y1="344" x2="410.5" y2="370" stroke="#5f5e5a" stroke-width="1.5" marker-end="url(#arrow)"/>
<line x1="550.5" y1="344" x2="550.5" y2="370" stroke="#5f5e5a" stroke-width="1.5" marker-end="url(#arrow)"/>

<rect x="68" y="370" width="125" height="56" rx="8" fill="#E1F5EE" stroke="#1D9E75" stroke-width="0.5"/>
<text x="130.5" y="390" text-anchor="middle" font-size="14" font-weight="600" fill="#085041">User</text>
<text x="130.5" y="408" text-anchor="middle" font-size="12" fill="#0F6E56">service</text>

<rect x="208" y="370" width="125" height="56" rx="8" fill="#E1F5EE" stroke="#1D9E75" stroke-width="0.5"/>
<text x="270.5" y="390" text-anchor="middle" font-size="14" font-weight="600" fill="#085041">Bowler</text>
<text x="270.5" y="408" text-anchor="middle" font-size="12" fill="#0F6E56">service</text>

<rect x="348" y="370" width="125" height="56" rx="8" fill="#E1F5EE" stroke="#1D9E75" stroke-width="0.5"/>
<text x="410.5" y="390" text-anchor="middle" font-size="14" font-weight="600" fill="#085041">Session</text>
<text x="410.5" y="408" text-anchor="middle" font-size="12" fill="#0F6E56">service</text>

<rect x="488" y="370" width="125" height="56" rx="8" fill="#E1F5EE" stroke="#1D9E75" stroke-width="0.5"/>
<text x="550.5" y="390" text-anchor="middle" font-size="14" font-weight="600" fill="#085041">Score</text>
<text x="550.5" y="408" text-anchor="middle" font-size="12" fill="#0F6E56">service</text>

<line x1="340" y1="426" x2="340" y2="452" stroke="#5f5e5a" stroke-width="1.5" marker-end="url(#arrow)"/>

<rect x="190" y="452" width="300" height="56" rx="8" fill="#EEEDFE" stroke="#7F77DD" stroke-width="0.5"/>
<text x="340" y="472" text-anchor="middle" font-size="14" font-weight="600" fill="#3C3489">JPA repositories</text>
<text x="340" y="490" text-anchor="middle" font-size="12" fill="#534AB7">7 Spring Data interfaces</text>

<line x1="340" y1="528" x2="340" y2="554" stroke="#5f5e5a" stroke-width="1.5" marker-end="url(#arrow)"/>

<rect x="240" y="554" width="200" height="48" rx="8" fill="#F1EFE8" stroke="#888780" stroke-width="0.5"/>
<text x="340" y="572" text-anchor="middle" font-size="14" font-weight="600" fill="#2C2C2A">MariaDB / H2</text>
<text x="340" y="588" text-anchor="middle" font-size="12" fill="#444441">prod vs test profile</text>
</svg>
